<mxfile host="app.diagrams.net" modified="2020-11-16T05:47:22.223Z" agent="5.0 (Macintosh; Intel Mac OS X 10_15_6) AppleWebKit/537.36 (KHTML, like Gecko) Chrome/86.0.4240.193 Safari/537.36" etag="Az6QPsbLQl89WEAoMy2G" version="13.9.9" type="github">
  <diagram id="J4sxEQqpXDz7WTKowsPH" name="Page-1">
    <mxGraphModel dx="946" dy="566" grid="1" gridSize="10" guides="1" tooltips="1" connect="1" arrows="1" fold="1" page="1" pageScale="1" pageWidth="850" pageHeight="1100" math="0" shadow="0">
      <root>
        <mxCell id="0" />
        <mxCell id="1" parent="0" />
        <mxCell id="hGcN8vvp8rt8pjComexK-1" value="" style="image;html=1;image=img/lib/clip_art/networking/Router_Icon_128x128.png" vertex="1" parent="1">
          <mxGeometry x="220" y="180" width="70" height="50" as="geometry" />
        </mxCell>
        <mxCell id="hGcN8vvp8rt8pjComexK-2" value="Example" style="image;html=1;image=img/lib/clip_art/networking/Router_Icon_128x128.png" vertex="1" parent="1">
          <mxGeometry x="400" y="170" width="80" height="80" as="geometry" />
        </mxCell>
        <mxCell id="hGcN8vvp8rt8pjComexK-4" value="" style="endArrow=none;html=1;exitX=1;exitY=0.5;exitDx=0;exitDy=0;entryX=0;entryY=0.5;entryDx=0;entryDy=0;" edge="1" parent="1" source="hGcN8vvp8rt8pjComexK-1" target="hGcN8vvp8rt8pjComexK-2">
          <mxGeometry width="50" height="50" relative="1" as="geometry">
            <mxPoint x="270" y="300" as="sourcePoint" />
            <mxPoint x="320" y="250" as="targetPoint" />
          </mxGeometry>
        </mxCell>
        <mxCell id="hGcN8vvp8rt8pjComexK-5" value="Example Swith" style="image;html=1;image=img/lib/clip_art/networking/Switch_128x128.png" vertex="1" parent="1">
          <mxGeometry x="430" y="270" width="80" height="80" as="geometry" />
        </mxCell>
        <mxCell id="hGcN8vvp8rt8pjComexK-6" value="" style="endArrow=none;html=1;" edge="1" parent="1">
          <mxGeometry width="50" height="50" relative="1" as="geometry">
            <mxPoint x="470" y="291" as="sourcePoint" />
            <mxPoint x="466.66666666666674" y="231" as="targetPoint" />
            <Array as="points">
              <mxPoint x="480" y="251" />
            </Array>
          </mxGeometry>
        </mxCell>
      </root>
    </mxGraphModel>
  </diagram>
</mxfile>
